<svg xmlns="http://www.w3.org/2000/svg" width="48" height="48" viewBox="0 0 48 48" role="img" aria-label="GitHub">
  <rect width="48" height="48" rx="10" fill="#24292F"/>
  <path fill="#fff" d="M24 10.2c-7.8 0-14.2 6.3-14.2 14.1 0 6.3 4.1 11.6 9.8 13.5.7.1 1-.3 1-.7v-2.5c-4 .9-4.8-1.7-4.8-1.7-.7-1.6-1.6-2.1-1.6-2.1-1.3-.9.1-.9.1-.9 1.4.1 2.2 1.5 2.2 1.5 1.3 2.2 3.4 1.6 4.2 1.2.1-.9.5-1.6.9-1.9-3.2-.4-6.5-1.6-6.5-7 0-1.6.6-2.8 1.5-3.8-.2-.4-.6-1.9.1-3.8 0 0 1.2-.4 3.9 1.5a13.2 13.2 0 0 1 7.1 0c2.7-1.9 3.9-1.5 3.9-1.5.8 1.9.3 3.4.1 3.8.9 1 1.5 2.3 1.5 3.8 0 5.4-3.3 6.6-6.5 7 .5.4 1 1.3 1 2.7v3.9c0 .4.3.9 1 .7 5.7-1.9 9.8-7.2 9.8-13.5 0-7.8-6.4-14.1-14.2-14.1Z"/>
</svg>
