<svg width="1200" height="780" viewBox="0 0 1200 780" fill="none" xmlns="http://www.w3.org/2000/svg" role="img" aria-labelledby="title desc">
  <title id="title">Clavier avec autocollants AZERTY Amélioré</title>
  <desc id="desc">Illustration d'un clavier portable avec des touches marquées pour la disposition AZERTY améliorée.</desc>

  <rect width="1200" height="780" fill="#F3F7F4" />
  <ellipse cx="980" cy="110" rx="210" ry="120" fill="#D9F2DD" />
  <ellipse cx="190" cy="690" rx="250" ry="150" fill="#FFE2B6" />

  <rect x="150" y="170" width="900" height="460" rx="32" fill="#1F2B24" />
  <rect x="188" y="210" width="824" height="300" rx="22" fill="#2D3A33" />

  <g fill="#4B5A53">
    <rect x="210" y="230" width="62" height="48" rx="10"/>
    <rect x="280" y="230" width="62" height="48" rx="10"/>
    <rect x="350" y="230" width="62" height="48" rx="10"/>
    <rect x="420" y="230" width="62" height="48" rx="10"/>
    <rect x="490" y="230" width="62" height="48" rx="10"/>
    <rect x="560" y="230" width="62" height="48" rx="10"/>
    <rect x="630" y="230" width="62" height="48" rx="10"/>
    <rect x="700" y="230" width="62" height="48" rx="10"/>
    <rect x="770" y="230" width="62" height="48" rx="10"/>
    <rect x="840" y="230" width="62" height="48" rx="10"/>

    <rect x="225" y="286" width="62" height="48" rx="10"/>
    <rect x="295" y="286" width="62" height="48" rx="10"/>
    <rect x="365" y="286" width="62" height="48" rx="10"/>
    <rect x="435" y="286" width="62" height="48" rx="10"/>
    <rect x="505" y="286" width="62" height="48" rx="10"/>
    <rect x="575" y="286" width="62" height="48" rx="10"/>
    <rect x="645" y="286" width="62" height="48" rx="10"/>
    <rect x="715" y="286" width="62" height="48" rx="10"/>
    <rect x="785" y="286" width="62" height="48" rx="10"/>
    <rect x="855" y="286" width="95" height="48" rx="10"/>

    <rect x="255" y="342" width="62" height="48" rx="10"/>
    <rect x="325" y="342" width="62" height="48" rx="10"/>
    <rect x="395" y="342" width="62" height="48" rx="10"/>
    <rect x="465" y="342" width="62" height="48" rx="10"/>
    <rect x="535" y="342" width="62" height="48" rx="10"/>
    <rect x="605" y="342" width="62" height="48" rx="10"/>
    <rect x="675" y="342" width="62" height="48" rx="10"/>
    <rect x="745" y="342" width="62" height="48" rx="10"/>
    <rect x="815" y="342" width="130" height="48" rx="10"/>

    <rect x="335" y="398" width="420" height="48" rx="10"/>
  </g>

  <g>
    <rect x="225" y="286" width="62" height="48" rx="10" fill="#78D2A1"/>
    <rect x="365" y="286" width="62" height="48" rx="10" fill="#78D2A1"/>
    <rect x="435" y="286" width="62" height="48" rx="10" fill="#78D2A1"/>
    <rect x="605" y="342" width="62" height="48" rx="10" fill="#78D2A1"/>
    <rect x="675" y="342" width="62" height="48" rx="10" fill="#78D2A1"/>
    <rect x="770" y="230" width="62" height="48" rx="10" fill="#FFD587"/>
    <rect x="840" y="230" width="62" height="48" rx="10" fill="#FFD587"/>
  </g>

  <g font-family="'IBM Plex Sans', sans-serif" font-size="21" font-weight="700" fill="#173023">
    <text x="246" y="318">é</text>
    <text x="387" y="318">è</text>
    <text x="457" y="318">à</text>
    <text x="627" y="374">œ</text>
    <text x="697" y="374">æ</text>
    <text x="792" y="262">«</text>
    <text x="862" y="262">»</text>
  </g>

  <rect x="212" y="560" width="430" height="42" rx="21" fill="#0F7B53"/>
  <text x="233" y="587" font-family="'IBM Plex Sans', sans-serif" font-size="20" font-weight="700" fill="#FFFFFF">
    Autocollants AZERTY Amélioré (Laptop + clavier externe)
  </text>
</svg>
